<?xml version="1.0" encoding="utf-8"?>
<!-- Generator: Adobe Illustrator 19.2.1, SVG Export Plug-In . SVG Version: 6.00 Build 0)  -->
<svg version="1.1" id="Слой_1" xmlns="http://www.w3.org/2000/svg" xmlns:xlink="http://www.w3.org/1999/xlink" x="0px" y="0px"
	 viewBox="0 0 512 512" style="enable-background:new 0 0 512 512;" xml:space="preserve">
<style type="text/css">
	.st0{fill:#D90A2C;}
</style>
<g>
	<g>
		<path class="st0" d="M256,180c16.5,0,30-13.5,30-30s-13.5-30-30-30s-30,13.5-30,30S239.5,180,256,180z M256,140
			c5.5,0,10,4.5,10,10s-4.5,10-10,10s-10-4.5-10-10S250.5,140,256,140z"/>
		<path class="st0" d="M266,470c0,5.5-4.5,10-10,10s-10-4.5-10-10s4.5-10,10-10S266,464.5,266,470z"/>
		<path class="st0" d="M502,390h-20V170c0-16.5-13.5-30-30-30H323.5C318.2,89.4,297,42.5,263.6,3.5C261.7,1.3,258.9,0,256,0
			s-5.7,1.3-7.6,3.5c-33.4,39-54.6,85.9-59.9,136.5H60c-16.5,0-30,13.5-30,30v220H10c-5.5,0-10,4.5-10,10v25c0,30.3,24.7,55,55,55
			h156c5.5,0,10-4.5,10-10s-4.5-10-10-10H55c-19.3,0-35-15.7-35-35v-15h137.3c4.5,17.2,20.1,30,38.7,30h120
			c18.6,0,34.3-12.8,38.7-30H492v15c0,19.3-15.7,35-35,35H301c-5.5,0-10,4.5-10,10s4.5,10,10,10h156c30.3,0,55-24.7,55-55v-25
			C512,394.5,507.5,390,502,390z M462,170v220h-78.9c-8.7-29.4-35.7-50-67.1-50c-11,0-20-8.9-20-20v-28.4l15.3-46.2l39.7,23.2
			c3.1,1.8,6.9,1.8,10,0c3.1-1.8,5-5.1,5-8.7c0-3.6,0-7,0-10.2c0.1-46.4-0.7-60.8-27.6-89.8H452C457.5,160,462,164.5,462,170z
			 M166,242.6c0-35.3,1.2-46.2,21.4-68.1c0.7,17.1,3.2,34.3,7.5,51.2L166,242.6z M256,100c12.7,0,25-3.4,35.7-9.8
			c7,19.6,11.3,39.8,12.7,60.4c1.5,23.1-0.6,46.4-6.4,69.3H214c-5.8-22.9-7.9-46.2-6.4-69.3c1.4-20.6,5.6-40.9,12.7-60.4
			C231,96.6,243.3,100,256,100z M324.6,174.5c20.2,21.9,21.4,32.8,21.4,68.1l-28.9-16.9C321.5,208.8,324,191.6,324.6,174.5z
			 M233.2,280L220,240H292l-13.3,40H233.2z M256,25.8c11.1,14.3,20.5,29.6,28,45.6C275.8,77,266,80,256,80s-19.8-3-28-8.6
			C235.5,55.4,244.9,40.1,256,25.8z M50,170c0-5.5,4.5-10,10-10h113.6c-26.9,29-27.8,43.4-27.6,89.8c0,3.2,0,6.6,0,10.2
			c0,3.6,1.9,6.9,5,8.7c3.1,1.8,6.9,1.8,10,0l39.7-23.2l15.3,46.2V320c0,11-9,20-20,20c-31.4,0-58.4,20.6-67.1,50H50V170z M346,390
			c-5.5,0-10,4.5-10,10c0,11-9,20-20,20H196c-11,0-20-9-20-20c0-5.5-4.5-10-10-10h-15.9c7.8-17.9,25.5-30,45.9-30
			c22.1,0,40-17.9,40-40v-20h40v20c0,22.4,18.2,40,40,40c20.4,0,38.1,12.1,45.9,30H346z"/>
	</g>
</g>
</svg>
